<?xml version="1.0" encoding="UTF-8"?>
<svg xmlns="http://www.w3.org/2000/svg" xmlns:xlink="http://www.w3.org/1999/xlink" width="524px" height="491px" viewBox="0 0 40 40" version="1.1">
<g id="surface1">
<path style=" stroke:none;fill-rule:nonzero;fill:rgb(16.078431%,17.647059%,19.607843%);fill-opacity:1;" d="M 4.300781 31.683594 L 4.265625 31.714844 C 3.816406 30.734375 3.535156 29.617188 3.417969 28.382812 C 3.535156 29.601562 3.851562 30.699219 4.300781 31.683594 Z M 4.300781 31.683594 "/>
<path style=" stroke:none;fill-rule:nonzero;fill:rgb(100%,100%,100%);fill-opacity:1;" d="M 15 17.300781 C 17.191406 17.300781 18.964844 15.523438 18.964844 13.332031 C 18.964844 11.144531 17.191406 9.367188 15 9.367188 C 12.808594 9.367188 11.035156 11.144531 11.035156 13.332031 C 11.035156 15.523438 12.808594 17.300781 15 17.300781 Z M 15 17.300781 "/>
<path style=" stroke:none;fill-rule:nonzero;fill:rgb(100%,100%,100%);fill-opacity:1;" d="M 26.984375 3.332031 L 13.015625 3.332031 C 6.949219 3.332031 3.332031 6.949219 3.332031 13.015625 L 3.332031 26.984375 C 3.332031 28.800781 3.648438 30.382812 4.265625 31.714844 C 5.699219 34.882812 8.765625 36.667969 13.015625 36.667969 L 26.984375 36.667969 C 33.050781 36.667969 36.667969 33.050781 36.667969 26.984375 L 36.667969 13.015625 C 36.667969 6.949219 33.050781 3.332031 26.984375 3.332031 Z M 33.949219 20.832031 C 32.648438 19.714844 30.550781 19.714844 29.25 20.832031 L 22.316406 26.785156 C 21.015625 27.898438 18.917969 27.898438 17.617188 26.785156 L 17.050781 26.316406 C 15.867188 25.285156 13.984375 25.183594 12.648438 26.082031 L 6.417969 30.265625 C 6.050781 29.332031 5.832031 28.25 5.832031 26.984375 L 5.832031 13.015625 C 5.832031 8.316406 8.316406 5.832031 13.015625 5.832031 L 26.984375 5.832031 C 31.683594 5.832031 34.167969 8.316406 34.167969 13.015625 L 34.167969 21.015625 Z M 33.949219 20.832031 "/>
</g>
</svg>
