<?xml version="1.0" encoding="UTF-8"?>
<svg xmlns="http://www.w3.org/2000/svg" xmlns:xlink="http://www.w3.org/1999/xlink" width="29px" height="30px" viewBox="0 0 30 30" version="1.1">
<g id="surface1">
<path style=" stroke:none;fill-rule:nonzero;fill:rgb(96.862745%,57.647059%,10.196078%);fill-opacity:1;" d="M 29.667969 15.027344 C 29.667969 23.113281 23.113281 29.667969 15.027344 29.667969 C 6.941406 29.667969 0.386719 23.113281 0.386719 15.027344 C 0.386719 6.941406 6.941406 0.386719 15.027344 0.386719 C 23.113281 0.386719 29.667969 6.941406 29.667969 15.027344 Z M 29.667969 15.027344 "/>
<path style=" stroke:none;fill-rule:evenodd;fill:rgb(100%,100%,100%);fill-opacity:1;" d="M 17.542969 14.984375 C 18.429688 14.769531 19.101562 14.167969 19.285156 12.929688 C 19.539062 11.234375 18.292969 10.332031 16.585938 9.734375 L 17.152344 7.4375 L 15.796875 7.097656 L 15.242188 9.332031 C 14.886719 9.242188 14.523438 9.160156 14.160156 9.078125 L 14.714844 6.824219 L 13.363281 6.484375 L 12.796875 8.78125 C 12.5 8.714844 12.210938 8.644531 11.929688 8.574219 L 11.929688 8.570312 L 10.0625 8.097656 L 9.695312 9.589844 C 9.695312 9.589844 10.699219 9.824219 10.679688 9.835938 C 11.226562 9.976562 11.324219 10.347656 11.304688 10.644531 L 10.660156 13.261719 C 10.707031 13.273438 10.753906 13.289062 10.800781 13.304688 L 10.65625 13.269531 L 9.75 16.933594 C 9.683594 17.105469 9.511719 17.363281 9.128906 17.269531 C 9.140625 17.289062 8.144531 17.019531 8.144531 17.019531 L 7.460938 18.621094 L 9.226562 19.066406 C 9.421875 19.113281 9.621094 19.167969 9.8125 19.21875 C 9.941406 19.25 10.066406 19.285156 10.191406 19.316406 L 9.617188 21.636719 L 10.96875 21.976562 L 11.535156 19.679688 C 11.894531 19.78125 12.253906 19.875 12.617188 19.964844 L 12.050781 22.25 L 13.402344 22.589844 L 13.976562 20.273438 C 16.289062 20.710938 18.027344 20.519531 18.773438 18.363281 C 19.371094 16.628906 18.757812 15.632812 17.542969 14.984375 Z M 23.679688 20.4375 L 24.175781 18.433594 L 26.164062 18.933594 L 26.496094 17.597656 L 24.503906 17.097656 L 25 15.09375 L 23.675781 14.757812 L 23.179688 16.765625 L 21.191406 16.265625 L 20.859375 17.601562 L 22.847656 18.101562 L 22.351562 20.105469 Z M 16.164062 17.414062 C 16.566406 15.789062 14.226562 15.261719 13.082031 15.003906 C 12.953125 14.972656 12.839844 14.949219 12.746094 14.925781 L 11.988281 18 C 12.0625 18.015625 12.152344 18.042969 12.253906 18.066406 C 13.359375 18.363281 15.773438 19.003906 16.164062 17.414062 Z M 14.066406 10.789062 C 15.019531 11.003906 16.972656 11.4375 16.605469 12.917969 C 16.25 14.367188 14.234375 13.824219 13.316406 13.574219 C 13.230469 13.550781 13.160156 13.53125 13.097656 13.515625 L 13.785156 10.726562 C 13.863281 10.746094 13.957031 10.765625 14.066406 10.789062 Z M 14.066406 10.789062 "/>
</g>
</svg>
