<?xml version="1.0" encoding="UTF-8"?>
<svg xmlns="http://www.w3.org/2000/svg" xmlns:xlink="http://www.w3.org/1999/xlink" width="29px" height="30px" viewBox="0 0 29 29" version="1.1">
<g id="surface1">
<path style=" stroke:none;fill-rule:nonzero;fill:rgb(47.843137%,74.117647%,96.862745%);fill-opacity:1;" d="M 12.9375 12.9375 C 13.964844 13.191406 15.035156 13.191406 16.0625 12.9375 C 16.347656 11.773438 16.949219 10.707031 17.796875 9.859375 C 18.644531 9.011719 19.710938 8.410156 20.875 8.125 C 21.113281 7.160156 21.125 6.152344 20.914062 5.179688 C 20.707031 4.207031 20.277344 3.296875 19.664062 2.511719 C 19.050781 1.730469 18.265625 1.097656 17.371094 0.664062 C 16.476562 0.226562 15.496094 0 14.5 0 C 13.503906 0 12.523438 0.226562 11.628906 0.664062 C 10.734375 1.097656 9.949219 1.730469 9.335938 2.511719 C 8.722656 3.296875 8.292969 4.207031 8.085938 5.179688 C 7.875 6.152344 7.886719 7.160156 8.125 8.125 C 9.289062 8.410156 10.355469 9.011719 11.203125 9.859375 C 12.050781 10.707031 12.652344 11.773438 12.9375 12.9375 Z M 12.9375 12.9375 "/>
<path style=" stroke:none;fill-rule:nonzero;fill:rgb(5.098039%,45.490196%,96.078431%);fill-opacity:1;" d="M 16.0625 16.058594 C 15.035156 15.808594 13.964844 15.808594 12.9375 16.058594 C 12.652344 17.226562 12.050781 18.289062 11.203125 19.140625 C 10.355469 19.988281 9.289062 20.589844 8.125 20.875 C 7.886719 21.839844 7.875 22.847656 8.085938 23.820312 C 8.296875 24.792969 8.722656 25.703125 9.335938 26.488281 C 9.953125 27.269531 10.734375 27.902344 11.628906 28.335938 C 12.523438 28.773438 13.507812 28.996094 14.5 28.996094 C 15.496094 28.996094 16.476562 28.773438 17.371094 28.335938 C 18.265625 27.902344 19.050781 27.269531 19.664062 26.488281 C 20.277344 25.703125 20.707031 24.792969 20.917969 23.820312 C 21.125 22.847656 21.113281 21.839844 20.878906 20.875 C 19.710938 20.589844 18.644531 19.988281 17.796875 19.140625 C 16.949219 18.292969 16.347656 17.226562 16.0625 16.058594 Z M 16.0625 16.058594 "/>
<path style=" stroke:none;fill-rule:nonzero;fill:rgb(26.666667%,58.039216%,96.862745%);fill-opacity:1;" d="M 22.4375 7.9375 C 21.910156 7.9375 21.386719 8 20.878906 8.125 C 20.589844 9.289062 19.992188 10.355469 19.140625 11.203125 C 18.292969 12.050781 17.230469 12.652344 16.0625 12.9375 C 15.8125 13.964844 15.8125 15.035156 16.0625 16.058594 C 17.230469 16.347656 18.292969 16.945312 19.140625 17.796875 C 19.992188 18.644531 20.589844 19.710938 20.878906 20.875 C 21.777344 21.09375 22.714844 21.121094 23.628906 20.953125 C 24.542969 20.785156 25.40625 20.421875 26.171875 19.894531 C 26.933594 19.367188 27.578125 18.683594 28.054688 17.886719 C 28.535156 17.09375 28.839844 16.207031 28.953125 15.285156 C 29.0625 14.363281 28.976562 13.429688 28.699219 12.542969 C 28.421875 11.65625 27.960938 10.839844 27.347656 10.144531 C 26.730469 9.449219 25.976562 8.894531 25.128906 8.511719 C 24.28125 8.132812 23.367188 7.933594 22.4375 7.933594 Z M 22.4375 7.9375 "/>
<path style=" stroke:none;fill-rule:nonzero;fill:rgb(0%,36.078431%,95.686275%);fill-opacity:1;" d="M 12.9375 16.058594 C 13.191406 15.035156 13.191406 13.964844 12.9375 12.9375 C 11.773438 12.652344 10.707031 12.050781 9.859375 11.203125 C 9.011719 10.355469 8.410156 9.289062 8.125 8.125 C 7.160156 7.886719 6.152344 7.875 5.179688 8.082031 C 4.207031 8.292969 3.296875 8.722656 2.511719 9.335938 C 1.730469 9.949219 1.097656 10.734375 0.664062 11.628906 C 0.226562 12.523438 0 13.503906 0 14.5 C 0 15.496094 0.226562 16.476562 0.664062 17.371094 C 1.097656 18.265625 1.730469 19.050781 2.511719 19.664062 C 3.296875 20.277344 4.207031 20.707031 5.179688 20.914062 C 6.152344 21.125 7.160156 21.113281 8.125 20.875 C 8.410156 19.710938 9.011719 18.644531 9.859375 17.796875 C 10.707031 16.945312 11.773438 16.347656 12.9375 16.058594 Z M 12.9375 16.058594 "/>
<path style=" stroke:none;fill-rule:nonzero;fill:rgb(9.411765%,43.137255%,97.647059%);fill-opacity:1;" d="M 16.0625 12.9375 C 17.226562 12.652344 18.292969 12.050781 19.140625 11.203125 C 19.988281 10.355469 20.589844 9.289062 20.875 8.125 C 19.710938 8.410156 18.644531 9.011719 17.796875 9.859375 C 16.949219 10.707031 16.347656 11.773438 16.0625 12.9375 Z M 16.0625 12.9375 "/>
<path style=" stroke:none;fill-rule:nonzero;fill:rgb(0.784314%,27.45098%,94.901961%);fill-opacity:1;" d="M 16.0625 16.058594 C 16.347656 17.226562 16.949219 18.289062 17.796875 19.140625 C 18.644531 19.988281 19.710938 20.589844 20.875 20.875 C 20.589844 19.710938 19.988281 18.644531 19.140625 17.796875 C 18.292969 16.945312 17.226562 16.347656 16.0625 16.058594 Z M 16.0625 16.058594 "/>
<path style=" stroke:none;fill-rule:nonzero;fill:rgb(0%,27.45098%,97.254902%);fill-opacity:1;" d="M 12.9375 12.9375 C 12.652344 11.773438 12.050781 10.707031 11.203125 9.859375 C 10.355469 9.011719 9.289062 8.410156 8.125 8.125 C 8.410156 9.289062 9.011719 10.355469 9.859375 11.203125 C 10.707031 12.050781 11.773438 12.652344 12.9375 12.9375 Z M 12.9375 12.9375 "/>
<path style=" stroke:none;fill-rule:nonzero;fill:rgb(2.745098%,16.078431%,94.509804%);fill-opacity:1;" d="M 12.9375 16.058594 C 11.773438 16.347656 10.707031 16.945312 9.859375 17.796875 C 9.011719 18.644531 8.410156 19.710938 8.125 20.875 C 9.289062 20.589844 10.355469 19.988281 11.203125 19.140625 C 12.050781 18.289062 12.652344 17.226562 12.9375 16.058594 Z M 12.9375 16.058594 "/>
<path style=" stroke:none;fill-rule:nonzero;fill:rgb(47.843137%,74.117647%,96.862745%);fill-opacity:1;" d="M 12.9375 12.9375 C 13.964844 13.191406 15.035156 13.191406 16.0625 12.9375 C 16.347656 11.773438 16.949219 10.707031 17.796875 9.859375 C 18.644531 9.011719 19.710938 8.410156 20.875 8.125 C 21.113281 7.160156 21.125 6.152344 20.914062 5.179688 C 20.707031 4.207031 20.277344 3.296875 19.664062 2.511719 C 19.050781 1.730469 18.265625 1.097656 17.371094 0.664062 C 16.476562 0.226562 15.496094 0 14.5 0 C 13.503906 0 12.523438 0.226562 11.628906 0.664062 C 10.734375 1.097656 9.949219 1.730469 9.335938 2.511719 C 8.722656 3.296875 8.292969 4.207031 8.085938 5.179688 C 7.875 6.152344 7.886719 7.160156 8.125 8.125 C 9.289062 8.410156 10.355469 9.011719 11.203125 9.859375 C 12.050781 10.707031 12.652344 11.773438 12.9375 12.9375 Z M 12.9375 12.9375 "/>
<path style=" stroke:none;fill-rule:nonzero;fill:rgb(5.098039%,45.490196%,96.078431%);fill-opacity:1;" d="M 16.0625 16.058594 C 15.035156 15.808594 13.964844 15.808594 12.9375 16.058594 C 12.652344 17.226562 12.050781 18.289062 11.203125 19.140625 C 10.355469 19.988281 9.289062 20.589844 8.125 20.875 C 7.886719 21.839844 7.875 22.847656 8.085938 23.820312 C 8.296875 24.792969 8.722656 25.703125 9.335938 26.488281 C 9.953125 27.269531 10.734375 27.902344 11.628906 28.335938 C 12.523438 28.773438 13.507812 28.996094 14.5 28.996094 C 15.496094 28.996094 16.476562 28.773438 17.371094 28.335938 C 18.265625 27.902344 19.050781 27.269531 19.664062 26.488281 C 20.277344 25.703125 20.707031 24.792969 20.917969 23.820312 C 21.125 22.847656 21.113281 21.839844 20.878906 20.875 C 19.710938 20.589844 18.644531 19.988281 17.796875 19.140625 C 16.949219 18.292969 16.347656 17.226562 16.0625 16.058594 Z M 16.0625 16.058594 "/>
<path style=" stroke:none;fill-rule:nonzero;fill:rgb(26.666667%,58.039216%,96.862745%);fill-opacity:1;" d="M 22.4375 7.9375 C 21.910156 7.9375 21.386719 8 20.878906 8.125 C 20.589844 9.289062 19.992188 10.355469 19.140625 11.203125 C 18.292969 12.050781 17.230469 12.652344 16.0625 12.9375 C 15.8125 13.964844 15.8125 15.035156 16.0625 16.058594 C 17.230469 16.347656 18.292969 16.945312 19.140625 17.796875 C 19.992188 18.644531 20.589844 19.710938 20.878906 20.875 C 21.777344 21.09375 22.714844 21.121094 23.628906 20.953125 C 24.542969 20.785156 25.40625 20.421875 26.171875 19.894531 C 26.933594 19.367188 27.578125 18.683594 28.054688 17.886719 C 28.535156 17.09375 28.839844 16.207031 28.953125 15.285156 C 29.0625 14.363281 28.976562 13.429688 28.699219 12.542969 C 28.421875 11.65625 27.960938 10.839844 27.347656 10.144531 C 26.730469 9.449219 25.976562 8.894531 25.128906 8.511719 C 24.28125 8.132812 23.367188 7.933594 22.4375 7.933594 Z M 22.4375 7.9375 "/>
<path style=" stroke:none;fill-rule:nonzero;fill:rgb(0%,36.078431%,95.686275%);fill-opacity:1;" d="M 12.9375 16.058594 C 13.191406 15.035156 13.191406 13.964844 12.9375 12.9375 C 11.773438 12.652344 10.707031 12.050781 9.859375 11.203125 C 9.011719 10.355469 8.410156 9.289062 8.125 8.125 C 7.160156 7.886719 6.152344 7.875 5.179688 8.082031 C 4.207031 8.292969 3.296875 8.722656 2.511719 9.335938 C 1.730469 9.949219 1.097656 10.734375 0.664062 11.628906 C 0.226562 12.523438 0 13.503906 0 14.5 C 0 15.496094 0.226562 16.476562 0.664062 17.371094 C 1.097656 18.265625 1.730469 19.050781 2.511719 19.664062 C 3.296875 20.277344 4.207031 20.707031 5.179688 20.914062 C 6.152344 21.125 7.160156 21.113281 8.125 20.875 C 8.410156 19.710938 9.011719 18.644531 9.859375 17.796875 C 10.707031 16.945312 11.773438 16.347656 12.9375 16.058594 Z M 12.9375 16.058594 "/>
<path style=" stroke:none;fill-rule:nonzero;fill:rgb(9.411765%,43.137255%,97.647059%);fill-opacity:1;" d="M 16.0625 12.9375 C 17.226562 12.652344 18.292969 12.050781 19.140625 11.203125 C 19.988281 10.355469 20.589844 9.289062 20.875 8.125 C 19.710938 8.410156 18.644531 9.011719 17.796875 9.859375 C 16.949219 10.707031 16.347656 11.773438 16.0625 12.9375 Z M 16.0625 12.9375 "/>
<path style=" stroke:none;fill-rule:nonzero;fill:rgb(0.784314%,27.45098%,94.901961%);fill-opacity:1;" d="M 16.0625 16.058594 C 16.347656 17.226562 16.949219 18.289062 17.796875 19.140625 C 18.644531 19.988281 19.710938 20.589844 20.875 20.875 C 20.589844 19.710938 19.988281 18.644531 19.140625 17.796875 C 18.292969 16.945312 17.226562 16.347656 16.0625 16.058594 Z M 16.0625 16.058594 "/>
<path style=" stroke:none;fill-rule:nonzero;fill:rgb(0%,27.45098%,97.254902%);fill-opacity:1;" d="M 12.9375 12.9375 C 12.652344 11.773438 12.050781 10.707031 11.203125 9.859375 C 10.355469 9.011719 9.289062 8.410156 8.125 8.125 C 8.410156 9.289062 9.011719 10.355469 9.859375 11.203125 C 10.707031 12.050781 11.773438 12.652344 12.9375 12.9375 Z M 12.9375 12.9375 "/>
<path style=" stroke:none;fill-rule:nonzero;fill:rgb(2.745098%,16.078431%,94.509804%);fill-opacity:1;" d="M 12.9375 16.058594 C 11.773438 16.347656 10.707031 16.945312 9.859375 17.796875 C 9.011719 18.644531 8.410156 19.710938 8.125 20.875 C 9.289062 20.589844 10.355469 19.988281 11.203125 19.140625 C 12.050781 18.289062 12.652344 17.226562 12.9375 16.058594 Z M 12.9375 16.058594 "/>
</g>
</svg>
