<?xml version="1.0" encoding="UTF-8"?>
<svg xmlns="http://www.w3.org/2000/svg" xmlns:xlink="http://www.w3.org/1999/xlink" width="29px" height="30px" viewBox="0 0 35 35" version="1.1">
<g id="surface1">
<path style=" stroke:none;fill-rule:nonzero;fill:rgb(88.627451%,46.27451%,10.588235%);fill-opacity:1;" d="M 30.238281 3.757812 L 19.003906 12.136719 L 21.082031 7.195312 Z M 30.238281 3.757812 "/>
<path style=" stroke:none;fill-rule:nonzero;fill:rgb(89.411765%,46.27451%,10.588235%);fill-opacity:1;" d="M 4.300781 3.757812 L 15.445312 12.21875 L 13.46875 7.195312 Z M 26.195312 23.183594 L 23.203125 27.785156 L 29.605469 29.554688 L 31.445312 23.285156 Z M 3.117188 23.285156 L 4.945312 29.554688 L 11.347656 27.785156 L 8.355469 23.183594 Z M 3.117188 23.285156 "/>
<path style=" stroke:none;fill-rule:nonzero;fill:rgb(89.411765%,46.27451%,10.588235%);fill-opacity:1;" d="M 10.984375 15.402344 L 9.203125 18.113281 L 15.558594 18.398438 L 15.332031 11.539062 Z M 23.554688 15.402344 L 19.148438 11.457031 L 19.003906 18.398438 L 25.347656 18.113281 Z M 11.347656 27.785156 L 15.164062 25.914062 L 11.867188 23.328125 Z M 19.375 25.914062 L 23.203125 27.785156 L 22.671875 23.328125 Z M 19.375 25.914062 "/>
<path style=" stroke:none;fill-rule:nonzero;fill:rgb(84.313725%,75.686275%,70.196078%);fill-opacity:1;" d="M 23.203125 27.785156 L 19.375 25.914062 L 19.679688 28.421875 L 19.648438 29.476562 Z M 11.347656 27.785156 L 14.90625 29.476562 L 14.882812 28.421875 L 15.164062 25.914062 Z M 11.347656 27.785156 "/>
<path style=" stroke:none;fill-rule:nonzero;fill:rgb(13.72549%,20.392157%,27.843137%);fill-opacity:1;" d="M 14.960938 21.675781 L 11.777344 20.734375 L 14.023438 19.699219 Z M 19.578125 21.675781 L 20.515625 19.699219 L 22.773438 20.734375 Z M 19.578125 21.675781 "/>
<path style=" stroke:none;fill-rule:nonzero;fill:rgb(80.392157%,38.039216%,8.627451%);fill-opacity:1;" d="M 11.347656 27.785156 L 11.890625 23.183594 L 8.355469 23.285156 Z M 22.660156 23.183594 L 23.203125 27.785156 L 26.195312 23.285156 Z M 25.347656 18.113281 L 19.003906 18.398438 L 19.589844 21.675781 L 20.527344 19.699219 L 22.785156 20.734375 Z M 11.777344 20.734375 L 14.035156 19.699219 L 14.960938 21.675781 L 15.558594 18.398438 L 9.203125 18.113281 Z M 11.777344 20.734375 "/>
<path style=" stroke:none;fill-rule:nonzero;fill:rgb(89.411765%,45.882353%,12.156863%);fill-opacity:1;" d="M 9.203125 18.113281 L 11.867188 23.328125 L 11.777344 20.734375 Z M 22.785156 20.734375 L 22.671875 23.328125 L 25.347656 18.113281 Z M 15.558594 18.398438 L 14.960938 21.675781 L 15.707031 25.539062 L 15.875 20.449219 Z M 19.003906 18.398438 L 18.699219 20.4375 L 18.832031 25.539062 L 19.589844 21.675781 Z M 19.003906 18.398438 "/>
<path style=" stroke:none;fill-rule:nonzero;fill:rgb(96.470588%,52.156863%,10.588235%);fill-opacity:1;" d="M 19.589844 21.675781 L 18.832031 25.539062 L 19.375 25.914062 L 22.671875 23.328125 L 22.785156 20.734375 Z M 11.777344 20.734375 L 11.867188 23.328125 L 15.164062 25.914062 L 15.707031 25.539062 L 14.960938 21.675781 Z M 11.777344 20.734375 "/>
<path style=" stroke:none;fill-rule:nonzero;fill:rgb(75.294118%,67.843137%,61.960784%);fill-opacity:1;" d="M 19.648438 29.476562 L 19.679688 28.421875 L 19.398438 28.171875 L 15.140625 28.171875 L 14.882812 28.421875 L 14.90625 29.476562 L 11.347656 27.785156 L 12.589844 28.804688 L 15.109375 30.5625 L 19.433594 30.5625 L 21.960938 28.804688 L 23.203125 27.785156 Z M 19.648438 29.476562 "/>
<path style=" stroke:none;fill-rule:nonzero;fill:rgb(8.627451%,8.627451%,8.627451%);fill-opacity:1;" d="M 19.375 25.914062 L 18.832031 25.539062 L 15.707031 25.539062 L 15.164062 25.914062 L 14.882812 28.421875 L 15.140625 28.171875 L 19.398438 28.171875 L 19.679688 28.421875 Z M 19.375 25.914062 "/>
<path style=" stroke:none;fill-rule:nonzero;fill:rgb(46.27451%,23.921569%,8.627451%);fill-opacity:1;" d="M 30.710938 12.683594 L 31.671875 8.054688 L 30.238281 3.757812 L 19.375 11.855469 L 23.554688 15.402344 L 29.457031 17.136719 L 30.769531 15.609375 L 30.203125 15.199219 L 31.109375 14.371094 L 30.40625 13.828125 L 31.3125 13.136719 Z M 2.878906 8.054688 L 3.839844 12.683594 L 3.230469 13.136719 L 4.132812 13.828125 L 3.445312 14.371094 L 4.347656 15.199219 L 3.78125 15.609375 L 5.082031 17.136719 L 10.984375 15.402344 L 15.164062 11.855469 L 4.300781 3.757812 Z M 2.878906 8.054688 "/>
<path style=" stroke:none;fill-rule:nonzero;fill:rgb(96.470588%,52.156863%,10.588235%);fill-opacity:1;" d="M 29.457031 17.136719 L 23.554688 15.402344 L 25.347656 18.113281 L 22.671875 23.328125 L 26.195312 23.285156 L 31.445312 23.285156 Z M 10.984375 15.402344 L 5.082031 17.136719 L 3.117188 23.285156 L 8.355469 23.285156 L 11.867188 23.328125 L 9.203125 18.113281 Z M 19.003906 18.398438 L 19.375 11.855469 L 21.09375 7.195312 L 13.46875 7.195312 L 15.164062 11.855469 L 15.558594 18.398438 L 15.695312 20.460938 L 15.707031 25.539062 L 18.832031 25.539062 L 18.855469 20.460938 Z M 19.003906 18.398438 "/>
</g>
</svg>
