<?xml version="1.0" encoding="UTF-8"?>
<svg xmlns="http://www.w3.org/2000/svg" xmlns:xlink="http://www.w3.org/1999/xlink" width="29px" height="30px" viewBox="0 0 35 35" version="1.1">
<g id="surface1">
<path style=" stroke:none;fill-rule:nonzero;fill:rgb(54.901961%,54.901961%,54.901961%);fill-opacity:1;" d="M 17.457031 2.878906 L 17.457031 13.476562 C 17.457031 13.523438 17.410156 13.566406 17.367188 13.566406 C 17.050781 13.707031 16.78125 13.839844 16.464844 13.976562 C 16.0625 14.160156 15.613281 14.339844 15.207031 14.570312 L 13.722656 15.25 L 12.507812 15.796875 L 11.023438 16.480469 C 10.617188 16.660156 10.210938 16.84375 9.761719 17.070312 C 9.449219 17.207031 9.085938 17.390625 8.773438 17.527344 C 8.726562 17.527344 8.726562 17.570312 8.683594 17.527344 L 8.636719 17.527344 C 8.773438 17.296875 8.90625 17.117188 9.042969 16.890625 C 9.761719 15.660156 10.527344 14.433594 11.246094 13.203125 C 12.011719 11.886719 12.820312 10.566406 13.585938 9.246094 C 14.308594 8.019531 15.027344 6.792969 15.746094 5.609375 C 16.285156 4.699219 16.828125 3.835938 17.320312 2.925781 C 17.410156 2.925781 17.410156 2.878906 17.457031 2.878906 C 17.410156 2.878906 17.457031 2.878906 17.457031 2.878906 Z M 17.457031 2.878906 "/>
<path style=" stroke:none;fill-rule:nonzero;fill:rgb(7.843137%,7.843137%,7.843137%);fill-opacity:1;" d="M 26.183594 17.527344 C 25.507812 17.980469 24.789062 18.390625 24.113281 18.796875 C 21.910156 20.117188 19.75 21.390625 17.546875 22.710938 C 17.5 22.710938 17.5 22.757812 17.457031 22.757812 C 17.410156 22.757812 17.410156 22.710938 17.410156 22.710938 L 17.410156 13.566406 C 17.410156 13.523438 17.457031 13.523438 17.5 13.523438 C 17.679688 13.613281 17.859375 13.707031 18.085938 13.796875 C 18.625 14.070312 19.210938 14.296875 19.75 14.570312 C 20.246094 14.796875 20.695312 15.023438 21.191406 15.207031 C 21.683594 15.433594 22.136719 15.660156 22.628906 15.886719 C 23.035156 16.070312 23.484375 16.253906 23.890625 16.480469 C 24.292969 16.660156 24.746094 16.84375 25.148438 17.070312 C 25.464844 17.207031 25.78125 17.390625 26.140625 17.527344 C 26.140625 17.480469 26.140625 17.527344 26.183594 17.527344 Z M 26.183594 17.527344 "/>
<path style=" stroke:none;fill-rule:nonzero;fill:rgb(54.901961%,54.901961%,54.901961%);fill-opacity:1;" d="M 17.457031 31.671875 C 17.457031 31.671875 17.410156 31.671875 17.457031 31.671875 C 17.410156 31.671875 17.410156 31.671875 17.367188 31.625 C 16.464844 30.355469 15.613281 29.125 14.710938 27.851562 L 12.011719 24.03125 C 11.15625 22.804688 10.257812 21.574219 9.402344 20.300781 L 8.726562 19.34375 C 8.726562 19.300781 8.683594 19.300781 8.683594 19.253906 C 8.726562 19.253906 8.726562 19.300781 8.773438 19.300781 C 9.988281 20.027344 11.246094 20.753906 12.460938 21.484375 C 13.855469 22.347656 15.296875 23.167969 16.691406 24.03125 C 16.917969 24.167969 17.1875 24.304688 17.410156 24.4375 C 17.457031 24.4375 17.457031 24.484375 17.457031 24.53125 Z M 17.457031 31.671875 "/>
<path style=" stroke:none;fill-rule:nonzero;fill:rgb(23.529412%,23.529412%,23.137255%);fill-opacity:1;" d="M 8.636719 17.050781 C 8.636719 17.003906 8.636719 17.003906 8.636719 17.050781 C 9.085938 16.824219 9.539062 16.640625 9.988281 16.414062 L 11.742188 15.59375 C 12.191406 15.367188 12.640625 15.1875 13.09375 14.957031 C 13.722656 14.640625 14.398438 14.367188 15.027344 14.046875 C 15.476562 13.867188 15.925781 13.636719 16.375 13.457031 C 16.691406 13.320312 17.007812 13.183594 17.320312 13 C 17.367188 13 17.367188 12.957031 17.410156 12.957031 L 17.410156 22.234375 C 17.367188 22.28125 17.367188 22.234375 17.320312 22.234375 C 17.1875 22.144531 17.050781 22.097656 16.960938 22.007812 L 8.726562 17.097656 C 8.683594 17.050781 8.636719 17.050781 8.636719 17.050781 Z M 26.050781 18.734375 C 26.050781 18.777344 26.050781 18.777344 26.003906 18.824219 C 23.394531 22.554688 20.785156 26.238281 18.175781 29.96875 C 17.90625 30.378906 17.636719 30.742188 17.367188 31.152344 L 17.367188 23.917969 C 17.949219 23.554688 18.535156 23.191406 19.121094 22.871094 L 26.003906 18.777344 C 26.003906 18.734375 26.050781 18.734375 26.050781 18.734375 Z M 26.050781 18.734375 "/>
<path style=" stroke:none;fill-rule:nonzero;fill:rgb(20.392157%,20.392157%,20.392157%);fill-opacity:1;" d="M 17.457031 13.523438 L 17.457031 2.925781 L 26.09375 17.390625 C 26.140625 17.4375 26.183594 17.480469 26.183594 17.527344 C 26.003906 17.4375 25.824219 17.34375 25.601562 17.253906 C 25.375 17.164062 25.148438 17.027344 24.925781 16.9375 C 24.789062 16.890625 24.65625 16.800781 24.476562 16.753906 C 24.25 16.664062 23.980469 16.527344 23.753906 16.4375 C 23.621094 16.390625 23.484375 16.300781 23.351562 16.253906 L 22.40625 15.84375 C 22.226562 15.753906 22.089844 15.707031 21.910156 15.617188 C 21.683594 15.527344 21.460938 15.390625 21.234375 15.296875 C 21.101562 15.253906 20.964844 15.160156 20.832031 15.117188 L 19.886719 14.707031 C 19.707031 14.617188 19.570312 14.570312 19.390625 14.480469 C 19.164062 14.390625 18.941406 14.25 18.714844 14.160156 C 18.582031 14.070312 18.402344 14.023438 18.265625 13.933594 Z M 17.457031 13.523438 "/>
</g>
</svg>
