<?xml version="1.0" encoding="UTF-8"?>
<svg xmlns="http://www.w3.org/2000/svg" xmlns:xlink="http://www.w3.org/1999/xlink" width="29px" height="30px" viewBox="0 0 32 32" version="1.1">
<g id="surface1">
<path style=" stroke:none;fill-rule:nonzero;fill:rgb(0.392157%,1.568627%,15.294118%);fill-opacity:1;" d="M 4.0625 0 L 27.9375 0 C 30.179688 0 32 1.820312 32 4.0625 L 32 27.9375 C 32 30.179688 30.179688 32 27.9375 32 L 4.0625 32 C 1.820312 32 0 30.179688 0 27.9375 L 0 4.0625 C 0 1.820312 1.820312 0 4.0625 0 Z M 4.0625 0 "/>
<path style=" stroke:none;fill-rule:nonzero;fill:rgb(100%,100%,100%);fill-opacity:1;" d="M 16.828125 9.222656 L 16.828125 4.160156 C 10.335938 4.160156 5.078125 9.476562 5.078125 15.734375 C 5.078125 21.988281 10.335938 27.304688 16.828125 27.304688 L 16.828125 22.242188 C 13.363281 22.242188 10.21875 20.070312 10.21875 15.734375 C 10.21875 11.394531 13.363281 9.222656 16.828125 9.222656 Z M 16.828125 9.222656 "/>
<path style=" stroke:none;fill-rule:nonzero;fill:rgb(0%,86.27451%,84.313725%);fill-opacity:1;" d="M 23.953125 9.695312 C 23.574219 9.695312 23.203125 9.621094 22.851562 9.480469 C 22.503906 9.335938 22.1875 9.125 21.917969 8.863281 C 21.652344 8.597656 21.441406 8.285156 21.296875 7.9375 C 21.148438 7.59375 21.074219 7.222656 21.074219 6.847656 C 21.074219 6.472656 21.148438 6.105469 21.296875 5.757812 C 21.441406 5.414062 21.652344 5.097656 21.917969 4.835938 C 22.1875 4.570312 22.503906 4.359375 22.851562 4.21875 C 23.203125 4.074219 23.574219 4 23.953125 4 C 24.71875 4 25.449219 4.300781 25.988281 4.835938 C 26.527344 5.367188 26.832031 6.09375 26.832031 6.847656 C 26.832031 7.605469 26.527344 8.328125 25.988281 8.863281 C 25.449219 9.394531 24.71875 9.695312 23.953125 9.695312 Z M 23.953125 9.695312 "/>
<path style=" stroke:none;fill-rule:nonzero;fill:rgb(100%,19.215686%,54.509804%);fill-opacity:1;" d="M 23.953125 27.464844 C 23.191406 27.464844 22.457031 27.164062 21.917969 26.632812 C 21.378906 26.097656 21.074219 25.371094 21.074219 24.617188 C 21.074219 23.863281 21.378906 23.136719 21.917969 22.601562 C 22.457031 22.070312 23.191406 21.769531 23.953125 21.769531 C 24.71875 21.769531 25.449219 22.070312 25.988281 22.601562 C 26.527344 23.136719 26.832031 23.863281 26.832031 24.617188 C 26.832031 25.371094 26.527344 26.097656 25.988281 26.632812 C 25.449219 27.164062 24.71875 27.464844 23.953125 27.464844 Z M 23.953125 27.464844 "/>
<path style=" stroke:none;fill-rule:nonzero;fill:rgb(100%,100%,100%);fill-opacity:1;" d="M 17.0625 22.042969 L 17.0625 9.421875 C 20.589844 9.421875 23.519531 12.226562 23.441406 15.730469 C 23.519531 19.238281 20.589844 22.042969 17.0625 22.042969 Z M 17.0625 22.042969 "/>
</g>
</svg>
