<?xml version="1.0" encoding="UTF-8"?>
<svg xmlns="http://www.w3.org/2000/svg" xmlns:xlink="http://www.w3.org/1999/xlink" width="310px" height="420px" viewBox="0 0 40 40" version="1.1">
<g id="surface1">
<path style=" stroke:none;fill-rule:nonzero;fill:rgb(100%,100%,100%);fill-opacity:1;" d="M 34.949219 26.800781 C 34.550781 31.25 31.332031 34.167969 26.667969 34.167969 L 11.667969 34.167969 C 7.066406 34.167969 3.332031 30.433594 3.332031 25.832031 L 3.332031 14.167969 C 3.332031 9.632812 6.066406 6.464844 10.316406 5.933594 C 10.75 5.867188 11.199219 5.832031 11.667969 5.832031 L 26.667969 5.832031 C 27.101562 5.832031 27.515625 5.851562 27.917969 5.917969 C 31.898438 6.382812 34.601562 9.167969 34.949219 13.199219 C 35 13.683594 34.601562 14.082031 34.117188 14.082031 L 31.535156 14.082031 C 29.933594 14.082031 28.449219 14.699219 27.382812 15.800781 C 26.117188 17.035156 25.484375 18.765625 25.632812 20.5 C 25.898438 23.535156 28.566406 25.917969 31.734375 25.917969 L 34.117188 25.917969 C 34.601562 25.917969 35 26.316406 34.949219 26.800781 Z M 34.949219 26.800781 "/>
<path style=" stroke:none;fill-rule:nonzero;fill:rgb(100%,100%,100%);fill-opacity:1;" d="M 36.667969 18.285156 L 36.667969 21.714844 C 36.667969 22.632812 35.933594 23.382812 35 23.417969 L 31.734375 23.417969 C 29.933594 23.417969 28.285156 22.101562 28.132812 20.300781 C 28.035156 19.25 28.433594 18.265625 29.132812 17.582031 C 29.75 16.949219 30.601562 16.582031 31.535156 16.582031 L 35 16.582031 C 35.933594 16.617188 36.667969 17.367188 36.667969 18.285156 Z M 36.667969 18.285156 "/>
</g>
</svg>
