<?xml version="1.0" encoding="UTF-8"?>
<svg xmlns="http://www.w3.org/2000/svg" xmlns:xlink="http://www.w3.org/1999/xlink" width="310px" height="420px" viewBox="0 0 79 15" version="1.1">
<defs>
<linearGradient id="linear0" gradientUnits="userSpaceOnUse" x1="-4.60425" y1="18.3023" x2="8.67559" y2="68.6236" gradientTransform="matrix(0.496855,0,0,0.5,0,0)">
<stop offset="0" style="stop-color:rgb(87.843137%,14.509804%,80.784314%);stop-opacity:1;"/>
<stop offset="1" style="stop-color:rgb(29.019608%,92.941176%,32.156863%);stop-opacity:1;"/>
</linearGradient>
</defs>
<g id="surface1">
<path style=" stroke:none;fill-rule:nonzero;fill:url(#linear0);" d="M 4.152344 10.820312 L 0.410156 11.136719 L 0.539062 9.613281 L 1.851562 9.707031 L 1.757812 5.839844 L 0.410156 5.988281 L 0.574219 4.003906 L 3.601562 4.003906 L 6 8.722656 L 7.59375 4.003906 L 10.609375 4.003906 L 10.609375 5.523438 L 9.222656 5.523438 L 9.34375 9.675781 L 10.804688 9.714844 L 10.886719 10.820312 L 7.015625 11.136719 L 7.015625 9.613281 L 8.402344 9.65625 L 7.871094 6.035156 L 6.09375 10.382812 L 5.371094 10.382812 L 2.996094 5.976562 L 2.71875 9.753906 L 4.066406 9.84375 Z M 18.769531 7.476562 C 18.769531 7.980469 18.699219 8.457031 18.554688 8.898438 C 18.414062 9.339844 18.191406 9.726562 17.890625 10.058594 C 17.585938 10.390625 17.199219 10.648438 16.726562 10.839844 C 16.253906 11.03125 15.6875 11.128906 15.027344 11.128906 C 14.359375 11.128906 13.785156 11.03125 13.308594 10.839844 C 12.835938 10.648438 12.449219 10.390625 12.148438 10.058594 C 11.847656 9.726562 11.628906 9.339844 11.488281 8.898438 C 11.351562 8.457031 11.28125 7.980469 11.28125 7.476562 C 11.28125 6.972656 11.355469 6.5 11.507812 6.054688 C 11.660156 5.605469 11.890625 5.21875 12.199219 4.890625 C 12.511719 4.558594 12.902344 4.296875 13.371094 4.105469 C 13.839844 3.914062 14.390625 3.816406 15.027344 3.816406 C 15.523438 3.816406 15.960938 3.859375 16.335938 3.949219 C 16.71875 4.035156 17.046875 4.160156 17.324219 4.320312 C 17.597656 4.476562 17.828125 4.667969 18.011719 4.890625 C 18.199219 5.109375 18.347656 5.355469 18.460938 5.628906 C 18.574219 5.898438 18.652344 6.191406 18.699219 6.503906 C 18.746094 6.816406 18.769531 7.140625 18.769531 7.476562 Z M 17.902344 7.476562 C 17.902344 7.207031 17.859375 6.957031 17.773438 6.71875 C 17.691406 6.480469 17.542969 6.273438 17.324219 6.097656 C 17.105469 5.917969 16.8125 5.777344 16.441406 5.675781 C 16.070312 5.574219 15.597656 5.523438 15.027344 5.523438 C 14.539062 5.523438 14.113281 5.574219 13.75 5.675781 C 13.394531 5.777344 13.09375 5.917969 12.855469 6.097656 C 12.617188 6.273438 12.441406 6.480469 12.324219 6.71875 C 12.207031 6.957031 12.152344 7.207031 12.152344 7.476562 C 12.152344 7.746094 12.203125 7.996094 12.308594 8.234375 C 12.417969 8.46875 12.585938 8.671875 12.8125 8.851562 C 13.046875 9.027344 13.34375 9.167969 13.703125 9.269531 C 14.070312 9.371094 14.511719 9.421875 15.027344 9.421875 C 15.535156 9.421875 15.96875 9.371094 16.332031 9.269531 C 16.695312 9.167969 16.992188 9.027344 17.222656 8.851562 C 17.457031 8.671875 17.628906 8.46875 17.738281 8.234375 C 17.847656 7.996094 17.902344 7.746094 17.902344 7.476562 Z M 23.335938 9.84375 L 23.289062 10.820312 L 19.546875 11.136719 L 19.546875 9.613281 L 20.773438 9.695312 L 20.664062 5.605469 L 19.546875 5.660156 L 19.710938 4.003906 L 22.917969 4.152344 L 25.855469 9.976562 L 25.855469 5.492188 L 24.839844 5.523438 L 24.839844 4.003906 L 28.425781 4.296875 L 28.359375 5.398438 L 27.277344 5.4375 L 26.636719 11.136719 L 25.699219 11.324219 L 22.050781 5.621094 L 21.679688 9.742188 Z M 37.796875 9.605469 L 37.769531 10.820312 L 33.667969 10.949219 L 33.667969 9.441406 L 34.585938 9.480469 L 33.535156 7.625 C 33.320312 7.699219 33.109375 7.761719 32.902344 7.816406 C 32.699219 7.867188 32.503906 7.914062 32.320312 7.953125 C 32.140625 7.988281 31.972656 8.019531 31.816406 8.042969 C 31.660156 8.066406 31.523438 8.082031 31.40625 8.09375 L 31.339844 9.539062 L 33.191406 9.605469 L 33.164062 10.820312 L 29.070312 10.949219 L 29.070312 9.441406 L 30.328125 9.488281 L 30.09375 5.425781 L 29.070312 5.457031 L 29.070312 3.945312 L 33.191406 4.113281 L 33.164062 5.324219 L 31.546875 5.386719 L 31.445312 7.449219 C 31.773438 7.425781 32.078125 7.371094 32.359375 7.285156 C 32.640625 7.195312 32.894531 7.089844 33.121094 6.964844 C 33.351562 6.839844 33.558594 6.703125 33.738281 6.550781 C 33.925781 6.402344 34.085938 6.253906 34.222656 6.101562 C 34.359375 5.953125 34.476562 5.808594 34.574219 5.671875 C 34.671875 5.535156 34.75 5.414062 34.8125 5.316406 L 33.660156 5.21875 L 33.6875 4.003906 L 37.816406 4.042969 L 37.734375 5.566406 L 36.507812 5.464844 C 36.382812 5.679688 36.238281 5.875 36.078125 6.058594 C 35.917969 6.238281 35.742188 6.402344 35.554688 6.558594 C 35.371094 6.707031 35.175781 6.84375 34.96875 6.96875 C 34.765625 7.089844 34.558594 7.199219 34.34375 7.300781 L 36.273438 9.546875 Z M 43.183594 8.132812 L 40.976562 7.957031 L 40.890625 9.117188 L 44.652344 9.117188 L 44.839844 8.179688 L 45.582031 8.179688 L 45.414062 10.679688 L 38.5 10.941406 L 38.5 9.117188 L 39.914062 9.117188 L 39.710938 5.886719 L 38.5 5.96875 L 38.5 4.160156 L 45.582031 4.308594 L 45.582031 7.074219 L 44.839844 7.222656 L 44.691406 5.566406 L 41.144531 5.800781 L 41.035156 7.195312 L 43.183594 7.066406 Z M 52.148438 9.613281 L 52.128906 10.832031 L 48.035156 10.960938 L 48.035156 9.453125 L 49.691406 9.519531 L 49.378906 8.09375 L 47.4375 5.425781 L 46.109375 5.464844 L 46.109375 3.957031 L 50.238281 4.121094 L 50.207031 5.339844 L 49.132812 5.378906 L 50.140625 7.417969 L 52.214844 5.4375 L 50.613281 5.574219 L 50.539062 4.0625 L 54.664062 4.023438 L 54.707031 5.230469 L 53.386719 5.339844 L 51.179688 8.386719 L 50.863281 9.566406 Z M 58.773438 9.84375 L 58.722656 10.820312 L 54.980469 11.136719 L 54.980469 9.613281 L 56.210938 9.695312 L 56.101562 5.605469 L 54.980469 5.660156 L 55.148438 4.003906 L 58.351562 4.152344 L 61.289062 9.976562 L 61.289062 5.492188 L 60.277344 5.523438 L 60.277344 4.003906 L 63.863281 4.296875 L 63.796875 5.398438 L 62.714844 5.4375 L 62.070312 11.136719 L 61.132812 11.324219 L 57.484375 5.621094 L 57.113281 9.742188 Z M 69.039062 8.429688 L 66.8125 8.253906 L 66.707031 9.648438 L 68.460938 9.566406 L 68.460938 11.082031 L 64.367188 10.949219 L 64.335938 9.734375 L 65.800781 9.675781 L 65.566406 5.886719 L 64.355469 5.96875 L 64.355469 4.160156 L 71.4375 4.308594 L 71.4375 7.074219 L 70.5 7.121094 L 70.546875 5.566406 L 67 5.800781 L 66.871094 7.496094 L 69.039062 7.355469 Z M 77.160156 9.648438 L 77.132812 10.863281 L 73.039062 10.988281 L 73.039062 9.480469 L 74.628906 9.546875 L 74.324219 5.679688 L 72.628906 5.691406 L 72.597656 7.09375 L 71.78125 7.09375 L 72.023438 4.238281 L 78.285156 3.984375 L 78.644531 6.96875 L 77.746094 7.09375 L 77.71875 5.660156 L 75.828125 5.671875 L 75.511719 9.574219 Z M 77.160156 9.648438 "/>
</g>
</svg>
