<?xml version="1.0" encoding="UTF-8"?>
<svg xmlns="http://www.w3.org/2000/svg" xmlns:xlink="http://www.w3.org/1999/xlink" width="310px" height="420px" viewBox="0 0 24 15" version="1.1">
<defs>
<linearGradient id="linear0" gradientUnits="userSpaceOnUse" x1="-1.41892" y1="18.3023" x2="25.1735" y2="49.3563" gradientTransform="matrix(0.489796,0,0,0.5,0,0)">
<stop offset="0" style="stop-color:rgb(87.843137%,14.509804%,80.784314%);stop-opacity:1;"/>
<stop offset="1" style="stop-color:rgb(29.019608%,92.941176%,32.156863%);stop-opacity:1;"/>
</linearGradient>
</defs>
<g id="surface1">
<path style=" stroke:none;fill-rule:nonzero;fill:url(#linear0);" d="M 4.285156 9.84375 L 4.238281 10.820312 L 0.550781 11.136719 L 0.550781 9.613281 L 1.761719 9.695312 L 1.652344 5.605469 L 0.550781 5.660156 L 0.714844 4.003906 L 3.871094 4.152344 L 6.769531 9.976562 L 6.769531 5.492188 L 5.769531 5.523438 L 5.769531 4.003906 L 9.304688 4.296875 L 9.238281 5.398438 L 8.171875 5.4375 L 7.539062 11.136719 L 6.613281 11.324219 L 3.019531 5.621094 L 2.652344 9.742188 Z M 14.40625 8.429688 L 12.214844 8.253906 L 12.109375 9.648438 L 13.835938 9.566406 L 13.835938 11.082031 L 9.800781 10.949219 L 9.773438 9.734375 L 11.214844 9.675781 L 10.984375 5.886719 L 9.792969 5.96875 L 9.792969 4.160156 L 16.769531 4.308594 L 16.769531 7.074219 L 15.847656 7.121094 L 15.894531 5.566406 L 12.398438 5.800781 L 12.269531 7.496094 L 14.40625 7.355469 Z M 22.414062 9.648438 L 22.386719 10.863281 L 18.347656 10.988281 L 18.347656 9.480469 L 19.917969 9.546875 L 19.617188 5.679688 L 17.945312 5.691406 L 17.917969 7.09375 L 17.109375 7.09375 L 17.347656 4.238281 L 23.519531 3.984375 L 23.878906 6.96875 L 22.992188 7.09375 L 22.960938 5.660156 L 21.097656 5.671875 L 20.789062 9.574219 Z M 22.414062 9.648438 "/>
</g>
</svg>
